#!OML:ASF F:\VICON\USERDATA\INSTALL\rory3\rory3.ASF
:FULLY-SPECIFIED
:DEGREES
73
root -0.2545785552657118 17.389250228337193 45.18313558956953 3.6144366608216125 1.5617301766493141 -0.44207495934766383
lfemur 7.624512741867916 -2.7122616844123413 -26.853396870951748
ltibia 36.34478246008534
lfoot -9.019152938999996 -2.5006283212144886
ltoes -25.340780252234516
rfemur -51.560404439829405 -5.577793929489387 22.515419707476386
rtibia 95.09122941359948
rfoot 0.7335998830667467 -5.012691850179285
rtoes 2.7162776749254856
lowerback 15.30777596017976 -0.805800739067202 -2.7358203933135226
upperback -1.1439712072704558 -1.4811374409662994 1.1738091935458752
thorax -9.873697136895172 -0.4959688818140625 3.6640845277346012
lowerneck -21.756487025465596 -2.2625273679315283 -2.2406297062735914
upperneck 14.464192402153486 -3.059745039729906 3.13319001985788
head 7.972137549160864 -1.1915647642583551 1.022612060571441
lclavicle -2.40315626572637e-15 1.2945035080971415e-15
lhumerus -30.564326746068684 -17.299415723950567 96.49041054200825
lradius 115.97001508792185
lwrist 37.012480677959275
lhand -25.547201949252358 0.3812291954086089
lfingers 7.12502
lthumb 0.9830301862315655 30.38193171991456
rclavicle -2.40315626572637e-15 1.2945035080971415e-15
rhumerus -61.28697082171607 5.712954744585113 -100.8763613662587
rradius 106.00098471052075
rwrist -13.868292113993762
rhand -14.240323272693104 38.76892250904345
rfingers 7.12502
rthumb 11.89862316695172 9.421103070152078
74
root -0.2228141473923887 17.626436963572978 45.85541270324273 3.9675842569253716 0.6028363081016246 -0.8574794963294365
lfemur 11.796194631083738 -2.538248623020215 -26.43732149954849
ltibia 32.1773944381165
lfoot -1.515477009243185 -5.564281648759001
ltoes -27.37028807983711
rfemur -52.370237492646496 -3.921419455190628 23.467361214222983
rtibia 84.91568485535493
rfoot 0.20021755958785015 -4.365189153835835
rtoes -0.3293656522778563
lowerback 14.703181636380055 -1.146177786526549 -2.50330758112868
upperback -1.4746103761814542 -1.853004806591839 1.6553573417254812
thorax -9.76718817126395 -0.6667868421533044 4.092184124130151
lowerneck -21.542936300044964 -1.8978035555921757 -2.4249515217494753
upperneck 14.843265997667123 -2.4745403003658955 2.8766462222656313
head 8.029033368683958 -0.9515794726519005 1.0208275059716294
lclavicle -2.4936669107532544e-15 1.228871145020611e-15
lhumerus -30.240255085315358 -16.96277505540662 95.59025294608556
lradius 117.95081723432428
lwrist 37.680019070097515
lhand -25.40259119442197 0.2501409940927639
lfingers 7.12502
lthumb 1.1226827731308608 30.242579273929227
rclavicle -2.4936669107532544e-15 1.228871145020611e-15
rhumerus -63.40573933588738 5.574378864861351 -100.0402291761723
rradius 107.05562070856934
rwrist -14.159409933031984
rhand -14.074522518844017 38.831609789806656
rfingers 7.12502
rthumb 12.058675806332669 9.469986282269947
75
root -0.18998198251390866 17.841655704325337 46.30103885830344 4.267472328750077 -0.42389652833435754 -1.2436580237053099
lfemur 15.043861361348304 -2.6584607724869196 -26.18631323479927
ltibia 28.43448376295721
lfoot 6.0498914342509424 -8.3497861143334
ltoes -26.904098354197814
rfemur -52.204002376108406 -2.1920492223294783 24.22810902759134
rtibia 73.75906684641
rfoot 0.12801448566928197 -3.5775343917534523
rtoes -3.714019349212553
lowerback 14.114710009589466 -1.3859667160400888 -2.2469356434005174
upperback -1.8106313158999452 -2.0897009407886142 2.0524124802553785
thorax -9.67585891839895 -0.7789584605032892 4.336600168981908
lowerneck -21.247044744805883 -1.6454249402265058 -2.6398239996277915
upperneck 15.201222761230767 -2.048061474019006 2.684401139380764
head 8.083646080972883 -0.7833104884650977 1.0324803802026825
lclavicle -2.76814803162401e-15 1.0297926464608864e-15
lhumerus -30.5352805553998 -17.054648112852995 94.75391659309655
lradius 119.19828568141388
lwrist 37.56164983904307
lhand -25.120738746612794 0.12936985907276854
lfingers 7.12502
lthumb 1.3948922322966302 30.11406193967767
rclavicle -2.76814803162401e-15 1.0297926464608864e-15
rhumerus -65.38221469999576 4.953979713405049 -98.95519283198048
rradius 107.87026741323615
rwrist -14.153566198687507
rhand -14.121492171577499 38.85445620654899
rfingers 7.12502
rthumb 12.013435672036657 9.47432132029638
76
root -0.15220164527504415 18.031529867619742 47.267459705732286 4.54984824442026 -1.2774874607534588 -1.417537957320506
lfemur 17.821703446543737 -3.1051878533442 -26.103910854440418
ltibia 26.263953432174162
lfoot 12.939286999669386 -10.381718436944233
ltoes -24.135174434654118
rfemur -50.89945796285909 -0.6482861395882056 24.842310050942622
rtibia 62.87756456489489
rfoot 0.7772426396795487 -2.7237691970736204
rtoes -6.833003373772032
lowerback 13.635006232151435 -1.5350008413143024 -1.969958325250216
upperback -2.1038783419760314 -2.2134633488702367 2.3387600952963763
thorax -9.59052951073194 -0.8425861877658499 4.509484608162793
lowerneck -20.917810192835457 -1.4706584204652953 -2.831408710397307
upperneck 15.499573521774716 -1.7427125503683287 2.573266054321273
head 8.131911422691964 -0.6646476998985826 1.0566978622104723
lclavicle -2.568690706527488e-15 1.1744695018717189e-15
lhumerus -30.822937913221708 -17.419619274543955 94.0502508101784
lradius 119.8398857008551
lwrist 36.89306856409853
lhand -24.772404535605062 0.040039073574706485
lfingers 7.12502
lthumb 1.7313260639169412 30.02101812424298
rclavicle -2.568690706527488e-15 1.1744695018717189e-15
rhumerus -66.95517134213587 4.013957114984068 -97.65149646086
rradius 108.68435080017389
rwrist -13.894242099433372
rhand -14.235127228159616 38.911191908549135
rfingers 7.12502
rthumb 11.903889257266053 9.515852835100645
77
root -0.11490628915447187 18.177147853660898 48.256192297078414 4.765147096480812 -1.8879849344816204 -1.396059891586376
lfemur 19.55638842308027 -3.9371114805730607 -26.32478260127601
ltibia 25.598651810565624
lfoot 18.117440107425537 -11.759599884918286
ltoes -20.2217543030929
rfemur -49.14931955150843 0.4296941387211289 25.213617852780825
rtibia 52.27398385688977
rfoot 1.6694065821409962 -2.198585111167865
rtoes -9.512246275320976
lowerback 13.262275029307334 -1.665811088638569 -1.7878406612623603
upperback -2.338339903324437 -2.3406759798632586 2.477422483222173
thorax -9.518031874270127 -0.9067501723487758 4.5820197905019375
lowerneck -20.64695255725323 -1.3810889546490173 -2.9850294192265667
upperneck 15.664882223236468 -1.571722443048475 2.50086418392026
head 8.153898937932766 -0.6019389397043171 1.075692748264363
lclavicle -2.4479075478330752e-15 1.2620740246473923e-15
lhumerus -31.26788266723598 -18.058728588029744 93.48704976011231
lradius 119.84103660565941
lwrist 35.97980075493396
lhand -24.49374302167321 -0.08242271350116304
lfingers 7.12502
lthumb 2.0004898756405494 29.899776532872565
rclavicle -2.4479075478330752e-15 1.2620740246473923e-15
rhumerus -68.21271776082261 2.7903350797479005 -96.33202037843216
rradius 109.48366728223371
rwrist -13.487215677361622
rhand -14.369470634045474 38.997792022602624
rfingers 7.12502
rthumb 11.774342298003681 9.587590343850119
78
root -0.07529542511802104 18.280037974397978 49.53820507260335 4.895844966488612 -2.1836389115440515 -1.1262725822156248
lfemur 20.784671996179135 -4.9667505783105055 -26.730491022440876
ltibia 26.893724505696866
lfoot 21.522532909487644 -12.585641788429903
ltoes -16.046881047627533
rfemur -47.02245436354802 1.020663853376564 25.4311302226659
rtibia 43.11540771835507
rfoot 2.870891541359125 -2.0134924947657478
rtoes -11.329308523408164
lowerback 13.038622722654914 -1.7829147393224605 -1.6872462523541552
upperback -2.4613143481724666 -2.478318940096873 2.5001354361479606
thorax -9.432960658141214 -0.9748252965539083 4.645945721361199
lowerneck -20.4569154202557 -1.3403582411298136 -3.0952869798861142
upperneck 15.686488759319 -1.478798441322723 2.470397809782733
head 8.146114418568043 -0.570016928998464 1.0932301451182032
lclavicle -2.0186122424633052e-15 1.573450072628922e-15
lhumerus -31.482261508222546 -18.745393235397415 93.10723897745414
lradius 119.36628300953615
lwrist 35.15415878933243
lhand -24.30258251351265 -0.14125176202360978
lfingers 7.12502
lthumb 2.185157612398414 29.84571142879879
rclavicle -2.0186122424633052e-15 1.573450072628922e-15
rhumerus -69.01527103668131 1.4577634873854262 -95.10608374244568
rradius 110.35164797964505
rwrist -12.957550878977564
rhand -14.451837472570775 39.14157233926914
rfingers 7.12502
rthumb 11.694908528800674 9.711155166374004
79
root -0.04329897601713542 18.32324551282951 50.35075825455008 4.856338260106503 -2.277731097302076 -0.760331909111827
lfemur 20.940877600269054 -6.029621703942444 -27.251969944098782
ltibia 29.64104629342975
lfoot 22.95272607232818 -13.178183832365804
ltoes -12.467340682939156
rfemur -45.14875137752842 1.1020280093523926 25.486846628404265
rtibia 35.69649526728676
rfoot 3.950164797162164 -2.2351198334842186
rtoes -12.387574080191142
lowerback 12.942725448645495 -1.899277670394933 -1.7019661288239416
upperback -2.4572708841125825 -2.6436995846242644 2.4236779011724323
thorax -9.341428331125519 -1.0533747182223983 4.626049493392244
lowerneck -20.37087343856187 -1.3659259378911526 -3.1820981187027986
upperneck 15.536316466747028 -1.483569359059124 2.449830300775447
head 8.097085996834503 -0.580755941372711 1.100374316760296
lclavicle -1.901607268651911e-15 1.658311424466055e-15
lhumerus -31.866503328255444 -19.443130721339156 92.90274495865788
lradius 118.24142070039093
lwrist 34.496146176276184
lhand -24.218791779093966 -0.15613266944705795
lfingers 7.12502
lthumb 2.2661254023161215 29.836027503826983
rclavicle -1.901607268651911e-15 1.658311424466055e-15
rhumerus -69.4615410802731 0.0518982732427542 -94.15589520156168
rradius 111.06365771186964
rwrist -12.389837807540621
rhand -14.5272181023221 39.291367156250985
rfingers 7.12502
rthumb 11.622150873387197 9.831528223307519
80
root -0.020092495640545882 18.315938301733002 50.93838758809584 4.638859695769436 -2.235956779624769 -0.3501053695196674
lfemur 20.528525050575688 -6.799878574339869 -27.628213882214276
ltibia 34.081619714773524
lfoot 23.13546105789729 -13.633445195019686
ltoes -9.609862422836027
rfemur -43.38863655987735 0.8786684073997084 25.57089348498575
rtibia 31.073905148231162
rfoot 5.074050531924115 -2.4913722993113825
rtoes -12.351101603348672
lowerback 13.008268904831827 -1.9649654006647075 -1.7269468256741363
upperback -2.3047095842388794 -2.750598922212107 2.315080093996065
thorax -9.237450931341657 -1.1058786092974686 4.572868695512508
lowerneck -20.32776195176624 -1.426833331098896 -3.2533333449221535
upperneck 15.274198986096424 -1.5351675948451868 2.4445965330298716
head 8.018755008956337 -0.613678755212139 1.1042130235708318
lclavicle -1.6855336192425789e-15 1.8150312581156768e-15
lhumerus -32.22136426225338 -19.89519353698893 92.87832330538724
lradius 116.5904899937948
lwrist 34.08350843350879
lhand -24.224922422571318 -0.07827478510129748
lfingers 7.12502
lthumb 2.2602311053671578 29.91706975466268
rclavicle -1.6855336192425789e-15 1.8150312581156768e-15
rhumerus -69.41857794862253 -1.2344095833229378 -93.49646136384747
rradius 111.57793714984805
rwrist -11.805581552421314
rhand -14.58744474415188 39.446134624307604
rfingers 7.12502
rthumb 11.56397204257833 9.953792239670662
